<svg width="65" height="65" viewBox="0 0 65 65" fill="none" xmlns="http://www.w3.org/2000/svg">
<path d="M32.0987 64.175C25.7697 64.175 19.5828 62.2983 14.3204 58.7821C9.05805 55.2658 4.95652 50.2682 2.53451 44.4209C0.112511 38.5737 -0.521213 32.1396 0.713513 25.9322C1.94824 19.7248 4.99597 14.0229 9.47125 9.54763C13.9465 5.07235 19.6484 2.02467 25.8558 0.789943C32.0631 -0.444784 38.4973 0.188889 44.3445 2.61089C50.1917 5.0329 55.1895 9.13443 58.7057 14.3968C62.2219 19.6592 64.0986 25.846 64.0986 32.175C64.089 40.659 60.7146 48.7928 54.7155 54.7919C48.7164 60.7909 40.5826 64.1655 32.0987 64.175V64.175ZM32.0987 2.38197C26.2061 2.38197 20.4459 4.12931 15.5465 7.40302C10.647 10.6767 6.82839 15.3298 4.57342 20.7737C2.31845 26.2177 1.72847 32.2081 2.87805 37.9874C4.02762 43.7667 6.8651 49.0753 11.0317 53.242C15.1984 57.4086 20.507 60.2461 26.2863 61.3957C32.0656 62.5453 38.056 61.9553 43.5 59.7003C48.944 57.4453 53.597 53.6267 56.8707 48.7272C60.1444 43.8278 61.8917 38.0676 61.8917 32.175C61.8828 24.2762 58.741 16.7034 53.1557 11.118C47.5703 5.5327 39.9975 2.39094 32.0987 2.38197V2.38197Z" fill="#3F3D56" fill-opacity="0.5"/>
<path d="M45.9062 44.9969C44.7349 44.9976 43.5897 44.6511 42.6154 44.001C41.6411 43.3509 40.8814 42.4265 40.4324 41.3447C39.9835 40.2629 39.8654 39.0723 40.0932 37.9233C40.3209 36.7744 40.8842 35.7188 41.7119 34.89C42.5395 34.0613 43.5944 33.4965 44.743 33.2672C45.8916 33.038 47.0824 33.1545 48.1648 33.602C49.2472 34.0495 50.1726 34.8079 50.824 35.7813C51.4754 36.7547 51.8235 37.8995 51.8243 39.0707C51.8247 40.6412 51.2015 42.1475 50.0918 43.2587C48.9821 44.3699 47.4766 44.9951 45.9062 44.9969ZM32.0985 44.9969C30.5295 44.9951 29.0253 44.371 27.9158 43.2615C26.8064 42.1521 26.1823 40.6479 26.1805 39.0789V25.2712C26.1824 23.7029 26.8067 22.1994 27.9164 21.091C29.026 19.9827 30.5302 19.3602 32.0986 19.3602C33.6669 19.3602 35.1711 19.9827 36.2808 21.091C37.3904 22.1994 38.0147 23.7029 38.0166 25.2712V39.0789C38.0148 40.6479 37.3907 42.1521 36.2812 43.2616C35.1718 44.371 33.6675 44.9951 32.0985 44.9969V44.9969ZM18.2949 44.9969C16.7248 44.9951 15.2195 44.3705 14.1093 43.2603C12.9991 42.15 12.3746 40.6447 12.3728 39.0746V33.558C12.3728 31.9873 12.9967 30.481 14.1074 29.3704C15.218 28.2598 16.7243 27.6358 18.2949 27.6358C19.8656 27.6358 21.3719 28.2598 22.4825 29.3704C23.5932 30.481 24.217 31.9873 24.217 33.558V39.0746C24.2153 40.6447 23.5908 42.15 22.4805 43.2603C21.3703 44.3705 19.865 44.9951 18.2949 44.9969V44.9969Z" fill="#5D55FA" fill-opacity="0.7"/>
</svg>
