<svg width="64" height="64" viewBox="0 0 64 64" fill="none" xmlns="http://www.w3.org/2000/svg">
<path d="M32 64C25.671 64 19.4841 62.1232 14.2217 58.607C8.95937 55.0908 4.85789 50.0931 2.43588 44.2459C0.0138769 38.3987 -0.619845 31.9645 0.614881 25.7571C1.84961 19.5497 4.89729 13.8479 9.37257 9.3726C13.8478 4.89732 19.5497 1.84962 25.7571 0.614888C31.9645 -0.61984 38.3986 0.0138599 44.2459 2.43586C50.0931 4.85787 55.0908 8.9594 58.607 14.2218C62.1232 19.4841 64 25.671 64 32C63.9904 40.484 60.6159 48.6178 54.6169 54.6169C48.6178 60.616 40.484 63.9904 32 64V64ZM32 2.20692C26.1075 2.20692 20.3473 3.95426 15.4479 7.22796C10.5484 10.5017 6.72971 15.1547 4.47474 20.5987C2.21977 26.0427 1.62979 32.0331 2.77936 37.8124C3.92893 43.5917 6.76646 48.9003 10.9331 53.0669C15.0997 57.2336 20.4084 60.0711 26.1877 61.2206C31.967 62.3702 37.9574 61.7802 43.4013 59.5253C48.8453 57.2703 53.4984 53.4516 56.7721 48.5522C60.0458 43.6527 61.7931 37.8925 61.7931 32C61.7842 24.1011 58.6424 16.5283 53.057 10.943C47.4717 5.35764 39.8989 2.21587 32 2.20692V2.20692Z" fill="#3F3D56" fill-opacity="0.5"/>
<path d="M14.9988 43.5998C14.539 43.5997 14.0894 43.4633 13.707 43.2079C13.3245 42.9525 13.0264 42.5895 12.8501 42.1647C12.6738 41.7399 12.6274 41.2725 12.7166 40.8213C12.8058 40.3702 13.0267 39.9556 13.3514 39.6299L25.1751 27.773C25.3591 27.5874 25.5781 27.4403 25.8195 27.3401C26.0608 27.2399 26.3196 27.1886 26.5809 27.1892H26.5823C26.8433 27.1885 27.1019 27.2395 27.3431 27.3394C27.5843 27.4393 27.8032 27.586 27.9873 27.7711L33.471 33.2547C33.5814 33.3658 33.7128 33.4539 33.8576 33.5139C34.0023 33.5738 34.1575 33.6045 34.3142 33.604H34.3148C34.4715 33.6045 34.6267 33.5738 34.7714 33.5138C34.9161 33.4537 35.0475 33.3655 35.1578 33.2543L42.8998 25.4993C42.9367 25.4623 42.966 25.4185 42.986 25.3703C43.0059 25.322 43.0161 25.2703 43.0161 25.2181C43.016 25.1659 43.0057 25.1143 42.9857 25.0661C42.9656 25.0179 42.9363 24.9741 42.8993 24.9372L40.3944 22.4365C40.2274 22.2698 40.1136 22.0574 40.0674 21.826C40.0212 21.5947 40.0446 21.3548 40.1348 21.1368C40.225 20.9188 40.3778 20.7324 40.574 20.6013C40.7701 20.4702 41.0007 20.4002 41.2367 20.4003H50.1338C50.4499 20.4006 50.753 20.5264 50.9766 20.7499C51.2001 20.9734 51.3258 21.2765 51.3262 21.5926V30.4841C51.3263 30.72 51.2564 30.9506 51.1254 31.1467C50.9944 31.3428 50.8082 31.4957 50.5903 31.586C50.3724 31.6763 50.1326 31.6999 49.9013 31.6539C49.67 31.6079 49.4575 31.4944 49.2908 31.3276L46.782 28.8186C46.7451 28.7817 46.7013 28.7524 46.6531 28.7325C46.6049 28.7125 46.5532 28.7022 46.501 28.7022C46.4488 28.7022 46.3971 28.7125 46.3489 28.7325C46.3007 28.7524 46.2569 28.7817 46.22 28.8186L35.7362 39.2953C35.5521 39.4804 35.3331 39.6271 35.092 39.727C34.8508 39.8268 34.5923 39.8779 34.3313 39.8771H34.3311C34.07 39.8778 33.8114 39.8267 33.5703 39.7268C33.3291 39.6268 33.1101 39.4801 32.926 39.2949L27.4397 33.8086C27.2125 33.5918 26.9106 33.4709 26.5966 33.4709C26.2825 33.4709 25.9806 33.5918 25.7534 33.8086L16.644 42.9178C16.4285 43.1347 16.1721 43.3066 15.8897 43.4237C15.6073 43.5407 15.3045 43.6006 14.9988 43.5998V43.5998Z" fill="#5D55FA" fill-opacity="0.7"/>
</svg>
