<svg width="64" height="64" viewBox="0 0 64 64" fill="none" xmlns="http://www.w3.org/2000/svg">
<path d="M38.1853 0.603528C36.1598 0.197901 34.0988 -0.00425789 32.0331 6.79739e-05C23.814 -0.00843813 15.9068 3.14586 9.95039 8.8092C3.99394 14.4725 0.444978 22.2107 0.0390794 30.4197C-0.366819 38.6287 2.40147 46.6791 7.77018 52.9024C13.1389 59.1258 20.6963 63.0447 28.8761 63.8471C37.0559 64.6494 45.2308 62.2736 51.7064 57.2121C58.182 52.1505 62.4618 44.7914 63.6588 36.66C64.8557 28.5286 62.8779 20.2484 58.1354 13.5356C53.3929 6.82281 46.2493 2.1922 38.1853 0.603528ZM40.3477 60.5471C36.2541 61.7379 31.9524 62.0353 27.7338 61.4192C23.5152 60.8032 19.4783 59.288 15.8961 56.9763C12.3139 54.6647 9.27014 51.6104 6.97082 48.0203C4.6715 44.4302 3.17029 40.388 2.56879 36.1673C1.96728 31.9466 2.27951 27.646 3.48437 23.5565C4.68923 19.4669 6.75858 15.684 9.55237 12.4636C12.3462 9.2433 15.7992 6.66072 19.6777 4.89072C23.5562 3.12072 27.7698 2.2046 32.0331 2.20437C32.9134 2.20437 33.7851 2.24628 34.6482 2.31333C41.5626 2.92438 48.0461 5.93255 52.9774 10.8177C57.9087 15.7028 60.9778 22.1576 61.654 29.066C62.3301 35.9743 60.5708 42.9017 56.6802 48.6503C52.7896 54.3988 47.0125 58.607 40.3477 60.5471Z" fill="#486581" fill-opacity="0.5"/>
<path d="M50.6451 26.3399C49.5885 21.709 46.7375 17.6866 42.718 15.1557C38.6984 12.6249 33.8389 11.7925 29.2062 12.8413C28.7536 12.9446 28.2851 13.0716 27.8722 13.1987L32.1441 31.9697L50.9151 27.7057C50.8357 27.2689 50.7483 26.7925 50.6451 26.3399Z" fill="#5D55FA" fill-opacity="0.7"/>
<path d="M48.8268 31.0009L30.0479 35.2648L25.784 16.4938C22.5098 17.5069 19.5948 19.4375 17.3845 22.0569C15.1742 24.6762 13.7614 27.8745 13.3135 31.2724C12.8656 34.6703 13.4014 38.1253 14.8574 41.228C16.3135 44.3306 18.6286 46.9507 21.5284 48.7776C24.4282 50.6045 27.791 51.5615 31.2182 51.5353C34.6454 51.5091 37.9932 50.5007 40.8648 48.6297C43.7363 46.7587 46.0111 44.1035 47.4195 40.979C48.8279 37.8544 49.3108 34.3915 48.811 31.0009H48.8268Z" fill="#5D55FA" fill-opacity="0.7"/>
</svg>
