<svg width="48" height="48" viewBox="0 0 48 48" fill="none" xmlns="http://www.w3.org/2000/svg">
<circle cx="24" cy="24" r="24" fill="#E3E5FA"/>
<g clip-path="url(#clip0_285_1176)">
<path d="M24 23.5C25.6569 23.5 27 22.1569 27 20.5C27 18.8431 25.6569 17.5 24 17.5C22.3431 17.5 21 18.8431 21 20.5C21 22.1569 22.3431 23.5 24 23.5Z" stroke="#5D55FA" stroke-linecap="round" stroke-linejoin="round"/>
<path d="M24.0001 25.5C22.2033 25.5494 20.443 26.0186 18.8601 26.87C18.449 27.0819 18.1045 27.4032 17.8645 27.7984C17.6245 28.1937 17.4984 28.6476 17.5001 29.11V29.57C17.4987 29.693 17.5218 29.815 17.568 29.929C17.6141 30.043 17.6824 30.1467 17.7689 30.2341C17.8554 30.3215 17.9583 30.3909 18.0718 30.4383C18.1853 30.4856 18.3071 30.51 18.4301 30.51H29.5701C29.693 30.51 29.8148 30.4856 29.9283 30.4383C30.0418 30.3909 30.1447 30.3215 30.2312 30.2341C30.3177 30.1467 30.386 30.043 30.4322 29.929C30.4783 29.815 30.5014 29.693 30.5001 29.57V29.11C30.4999 28.6493 30.3729 28.1975 30.133 27.8042C29.8931 27.4108 29.5496 27.0911 29.1401 26.88C27.5579 26.0251 25.7976 25.5525 24.0001 25.5V25.5Z" stroke="#5D55FA" stroke-linecap="round" stroke-linejoin="round"/>
<path d="M16.5 21.5C17.6046 21.5 18.5 20.6046 18.5 19.5C18.5 18.3954 17.6046 17.5 16.5 17.5C15.3954 17.5 14.5 18.3954 14.5 19.5C14.5 20.6046 15.3954 21.5 16.5 21.5Z" stroke="#5D55FA" stroke-linecap="round" stroke-linejoin="round"/>
<path d="M20.4 26.19C20.4636 26.0842 20.4981 25.9634 20.5 25.84V25.52C20.5006 25.2173 20.4249 24.9193 20.2798 24.6536C20.1347 24.3879 19.925 24.1631 19.67 24C18.7188 23.3954 17.6258 23.0507 16.5 23C15.3741 23.0507 14.2811 23.3954 13.33 24C13.075 24.1631 12.8652 24.3879 12.7201 24.6536C12.5751 24.9193 12.4993 25.2173 12.5 25.52V25.84C12.4889 26.0029 12.5426 26.1636 12.6493 26.2872C12.756 26.4107 12.9072 26.4872 13.07 26.5H19.64" stroke="#5D55FA" stroke-linecap="round" stroke-linejoin="round"/>
<path d="M31.5 21.5C32.6046 21.5 33.5 20.6046 33.5 19.5C33.5 18.3954 32.6046 17.5 31.5 17.5C30.3954 17.5 29.5 18.3954 29.5 19.5C29.5 20.6046 30.3954 21.5 31.5 21.5Z" stroke="#5D55FA" stroke-linecap="round" stroke-linejoin="round"/>
<path d="M27.6 26.19C27.5364 26.0842 27.5019 25.9634 27.5 25.84V25.52C27.4994 25.2173 27.5751 24.9193 27.7202 24.6536C27.8653 24.3879 28.075 24.1631 28.33 24C29.2812 23.3954 30.3741 23.0507 31.5 23C32.6259 23.0507 33.7189 23.3954 34.67 24C34.9308 24.1667 35.1442 24.3979 35.2896 24.6711C35.435 24.9444 35.5075 25.2506 35.5 25.56V25.88C35.511 26.0429 35.4574 26.2036 35.3507 26.3272C35.2439 26.4507 35.0928 26.5272 34.93 26.54H28.36" stroke="#5D55FA" stroke-linecap="round" stroke-linejoin="round"/>
</g>
<defs>
<clipPath id="clip0_285_1176">
<rect width="24" height="24" fill="white" transform="translate(12 12)"/>
</clipPath>
</defs>
</svg>
