<svg width="508" height="574" viewBox="0 0 508 574" fill="none" xmlns="http://www.w3.org/2000/svg">
<g clip-path="url(#clip0_225_1194)">
<path d="M344.329 451.965C360.455 436.789 368.77 414.054 360.107 394.823C347.495 414.175 326.732 429.415 302.66 436.992C293.284 439.942 282.502 442.377 277.402 449.82C274.229 454.451 273.998 460.251 275.427 465.495C276.857 470.739 279.801 475.563 282.716 480.32L282.732 481.666C305.552 475.862 328.203 467.142 344.329 451.965Z" fill="#F2F2F2"/>
<path d="M359.622 394.924C356.903 411.672 348.006 427.774 334.402 439.913C331.45 442.659 328.099 444.943 324.464 446.688C320.722 448.344 316.644 449.097 312.558 448.887C308.708 448.765 304.787 448.252 300.971 448.944C299.099 449.273 297.313 449.976 295.719 451.011C294.126 452.046 292.757 453.392 291.695 454.967C289.165 458.688 288.325 462.976 287.671 467.194C286.945 471.877 286.276 476.751 283.192 480.78C282.818 481.268 283.712 481.743 284.085 481.256C289.452 474.247 287.656 465.289 291.277 457.73C292.967 454.203 295.891 451.097 300.261 450.031C304.083 449.1 308.127 449.626 312.023 449.779C316.016 450.032 320.017 449.428 323.757 448.005C327.481 446.429 330.926 444.261 333.959 441.587C340.6 435.914 346.274 429.2 350.76 421.707C355.738 413.498 359.102 404.415 360.67 394.944C360.764 394.365 359.715 394.35 359.622 394.925V394.924Z" fill="white"/>
<path d="M339.064 436.17C341.833 437.886 345.069 438.697 348.321 438.49C351.572 438.282 354.678 437.066 357.207 435.012C357.686 434.599 356.971 433.934 356.491 434.346C354.14 436.263 351.248 437.395 348.22 437.583C345.192 437.771 342.182 437.006 339.612 435.394C339.069 435.046 338.524 435.824 339.064 436.17Z" fill="white"/>
<path d="M314.5 449.173C313.961 446.247 314.048 443.241 314.756 440.351C315.463 437.462 316.774 434.755 318.604 432.408C318.975 431.919 318.082 431.444 317.71 431.933C315.812 434.378 314.453 437.197 313.724 440.205C312.995 443.214 312.912 446.342 313.481 449.385C313.593 449.963 314.611 449.748 314.5 449.173Z" fill="white"/>
<path d="M354.41 413.254C353.267 412.846 352.247 412.153 351.447 411.241C350.646 410.329 350.092 409.227 349.837 408.041C349.734 407.461 348.716 407.677 348.818 408.253C349.106 409.562 349.719 410.778 350.6 411.787C351.482 412.797 352.604 413.568 353.863 414.03C353.982 414.09 354.118 414.107 354.249 414.08C354.38 414.053 354.498 413.982 354.583 413.88C354.618 413.829 354.642 413.771 354.652 413.71C354.662 413.649 354.659 413.586 354.643 413.527C354.626 413.467 354.597 413.412 354.557 413.364C354.517 413.317 354.467 413.28 354.41 413.254Z" fill="white"/>
<path d="M283.636 372.956C283.689 373.32 283.742 373.683 283.788 374.052C284.467 378.935 284.688 383.871 284.449 388.795C284.437 389.176 284.419 389.562 284.394 389.942C283.635 401.922 280.369 413.61 274.807 424.249C272.544 428.593 269.931 432.745 266.994 436.664C262.901 442.133 257.963 447.781 256.24 453.924C256.053 454.56 255.91 455.209 255.814 455.866L280.841 481.579C280.932 481.613 281.016 481.652 281.107 481.686L282.052 482.752C282.222 482.557 282.392 482.351 282.562 482.157C282.66 482.044 282.753 481.925 282.852 481.813C282.916 481.736 282.98 481.658 283.043 481.592C283.064 481.566 283.085 481.541 283.1 481.52C283.163 481.454 283.213 481.386 283.269 481.325C284.227 480.179 285.178 479.026 286.12 477.864C286.127 477.859 286.127 477.859 286.128 477.848C293.285 468.983 299.652 459.521 304.164 449.52C304.299 449.219 304.442 448.913 304.566 448.6C306.559 444.117 308.137 439.461 309.279 434.689C309.888 432.099 310.347 429.475 310.652 426.831C311.425 420.007 310.956 413.1 309.269 406.442C305.899 393.104 297.655 380.85 284.637 373.508C284.304 373.321 283.976 373.139 283.636 372.956Z" fill="#F2F2F2"/>
<path d="M283.317 373.29C292.756 388.084 296.815 405.592 294.368 422.397C293.925 426.097 292.829 429.688 291.129 433.004C289.238 436.335 286.48 439.093 283.147 440.985C279.989 442.9 276.503 444.541 273.936 447.09C272.673 448.331 271.722 449.853 271.161 451.531C270.599 453.21 270.443 454.998 270.705 456.749C271.264 461.042 273.566 464.905 275.968 468.615C278.635 472.734 281.48 476.975 281.81 481.805C281.85 482.39 282.893 482.302 282.853 481.718C282.279 473.315 274.635 467.102 272.286 459.173C271.19 455.473 271.371 451.464 274.123 448.329C276.529 445.586 280.122 443.891 283.339 441.977C286.628 440.161 289.422 437.568 291.478 434.425C293.364 431.205 294.618 427.655 295.175 423.966C296.541 415.792 296.417 407.438 294.808 399.308C292.977 389.863 289.366 380.853 284.167 372.757C283.841 372.246 282.993 372.782 283.317 373.29Z" fill="white"/>
<path d="M295.495 416.971C302.35 416.909 308.198 412.443 309.178 406.56C309.275 405.98 308.242 405.822 308.146 406.403C307.228 411.914 301.802 416.007 295.394 416.065C294.72 416.072 294.824 416.978 295.495 416.971Z" fill="white"/>
<path d="M284.896 440.198C282.525 438.309 280.563 435.958 279.128 433.289C277.694 430.619 276.817 427.685 276.551 424.666C276.509 424.081 275.466 424.169 275.508 424.754C275.792 427.895 276.711 430.946 278.21 433.722C279.71 436.498 281.757 438.94 284.229 440.9C284.72 441.303 285.384 440.599 284.896 440.198V440.198Z" fill="white"/>
<path d="M291.862 390.65C290.595 390.906 289.288 390.881 288.032 390.575C286.776 390.269 285.603 389.689 284.597 388.878C284.113 388.47 283.449 389.175 283.93 389.581C285.046 390.472 286.342 391.111 287.729 391.452C289.116 391.793 290.561 391.828 291.963 391.556C292.241 391.501 292.46 391.326 292.434 391.059C292.409 390.931 292.336 390.817 292.229 390.741C292.123 390.665 291.992 390.632 291.862 390.65V390.65Z" fill="white"/>
<path d="M225.643 480.901C194.494 502.192 163.523 507.596 138.437 496.117C106.244 481.385 86.7432 440.827 84.9341 384.842L86.8412 385.02C88.6247 440.227 107.665 480.133 139.078 494.508C163.492 505.679 193.794 500.31 224.402 479.389L225.643 480.901Z" fill="#F2F2F2"/>
<path d="M418.141 120.394C415.073 154.181 406.335 189.809 392.629 224.184C375.68 266.694 352.524 304.136 325.664 332.463L324.173 331.164C350.904 302.973 373.955 265.696 390.832 223.362C406.086 185.106 415.158 145.294 417.081 108.249L418.986 108.568C418.784 112.48 418.502 116.422 418.141 120.394Z" fill="#F2F2F2"/>
<path d="M335.391 72.3747L333.539 72.5775C325.283 40.1431 309.28 17.6728 287.258 7.59554C259.263 -5.21443 224.646 3.38771 189.784 31.8177C154.744 60.3928 123.725 105.529 102.441 158.914L100.645 158.092C122.022 104.474 153.2 59.1195 188.436 30.3856C223.849 1.50637 259.172 -7.15884 287.899 5.98653C310.553 16.3525 326.975 39.3093 335.391 72.3747Z" fill="#F2F2F2"/>
<path d="M438.141 354.752C400.414 414.756 354.642 457.629 309.257 475.473L308.339 473.79C353.41 456.07 398.913 413.416 436.469 353.687L438.141 354.752Z" fill="#F2F2F2"/>
<path d="M496.35 220.318C495.728 227.166 494.931 234.098 493.959 241.113L492.067 240.655C499.328 188.302 496.753 140.3 484.616 101.83L486.439 101.525C497.025 135.083 500.39 175.816 496.35 220.318Z" fill="#F2F2F2"/>
<path d="M102.3 168.305C97.457 178.503 92.851 189.069 88.6093 199.708C64.2003 260.93 51.8309 323.454 52.8417 380.525L50.934 380.321C49.9222 323.039 62.3272 260.299 86.8126 198.886C91.0665 188.217 95.6856 177.622 100.542 167.395L102.3 168.305Z" fill="#F2F2F2"/>
<path d="M224.728 522.968C193.578 544.259 162.608 549.662 137.521 538.183C105.329 523.452 85.8276 482.894 84.0184 426.908L85.9256 427.087C87.709 482.293 106.749 522.2 138.163 536.574C162.576 547.746 192.878 542.377 223.486 521.456L224.728 522.968Z" fill="#F2F2F2"/>
<path d="M417.225 162.461C414.158 196.248 405.419 231.875 391.713 266.251C374.765 308.761 351.609 346.203 324.748 374.53L323.257 373.231C349.988 345.04 373.039 307.763 389.917 265.429C405.17 227.172 414.243 187.361 416.165 150.316L418.07 150.635C417.868 154.547 417.586 158.489 417.225 162.461Z" fill="#F2F2F2"/>
<path d="M413.865 116.776L412.013 116.979C403.757 84.5442 387.754 62.0739 365.732 51.9967C337.737 39.1867 303.121 47.7888 268.258 76.2188C233.219 104.794 202.2 149.93 180.916 203.315L179.119 202.493C200.497 148.875 231.675 103.521 266.911 74.7867C302.323 45.9075 337.647 37.2423 366.374 50.3877C389.027 60.7537 405.449 83.7104 413.865 116.776Z" fill="#F2F2F2"/>
<path d="M435.669 411.603C397.941 471.607 352.169 514.48 306.784 532.323L305.866 530.641C350.937 512.92 396.441 470.267 433.996 410.537L435.669 411.603Z" fill="#F2F2F2"/>
<path d="M495.434 262.385C494.813 269.233 494.016 276.164 493.044 283.18L491.151 282.721C498.413 230.369 495.837 182.367 483.7 143.896L485.524 143.591C496.11 177.15 499.475 217.883 495.434 262.385Z" fill="#F2F2F2"/>
<path d="M101.384 210.372C96.5414 220.57 91.9354 231.136 87.6937 241.774C63.2847 302.997 50.9153 365.521 51.9261 422.591L50.0184 422.388C49.0065 365.105 61.4115 302.366 85.8969 240.952C90.1508 230.284 94.77 219.688 99.6264 209.461L101.384 210.372Z" fill="#F2F2F2"/>
<path d="M466.339 180.851C468.448 177.683 467.199 173.147 463.551 170.72C459.902 168.293 455.235 168.895 453.126 172.064C451.017 175.232 452.265 179.768 455.914 182.195C459.563 184.622 464.23 184.02 466.339 180.851Z" fill="#FD6584"/>
<path d="M223.947 221.246C228.363 214.482 235.573 209.166 243.602 208.716C251.632 208.267 261.282 215.103 265.245 222.137C272.494 235.003 269.348 247.374 259.364 256.323C258.008 255.863 253.274 254.474 251.896 254.03L251.021 252.452L249.943 253.412C237.604 254.642 225.685 253.271 216.398 244.08C217.553 236.082 219.531 228.011 223.947 221.246Z" fill="#2F2E41"/>
<path d="M257.03 311.553L255.572 325.077L256.43 342.812L217.136 338.145L213.444 311.553L218.148 311.599L257.03 311.553Z" fill="#FFB6B6"/>
<path d="M240.897 253.108C249.908 253.108 257.213 245.805 257.213 236.797C257.213 227.788 249.908 220.485 240.897 220.485C231.885 220.485 224.58 227.788 224.58 236.797C224.58 245.805 231.885 253.108 240.897 253.108Z" fill="#FFB7B7"/>
<path d="M222.817 267.104L232.154 261.504L250.828 259.637L267.333 268.039L267.168 293.707L256.697 320.329L212.813 314.728L211.145 305.338C211.145 305.338 199.007 289.04 212.079 279.706L222.817 267.104Z" fill="#5D55FA"/>
<path d="M234.796 212.024C238.332 211.033 242.068 211.01 245.616 211.957C249.164 212.904 252.391 214.787 254.962 217.408C257.533 220.029 259.352 223.292 260.229 226.856C261.106 230.421 261.01 234.155 259.949 237.67C250.012 238.463 240.189 237.535 232.445 230.506L231.756 224.477L228.931 229.522C226.081 228.721 223.227 227.915 220.369 227.103C221.243 223.547 223.036 220.283 225.568 217.637C228.099 214.991 231.282 213.055 234.796 212.024Z" fill="#2F2E41"/>
<path d="M166.776 190.887C166.333 191.83 166.103 192.859 166.101 193.9C166.1 194.942 166.326 195.971 166.766 196.916C167.205 197.861 167.846 198.698 168.644 199.368C169.441 200.038 170.376 200.525 171.383 200.795L201.783 258.137L214.054 248.67L180.313 195.281C180.654 193.561 180.352 191.775 179.465 190.262C178.577 188.749 177.165 187.615 175.497 187.073C173.828 186.532 172.019 186.621 170.411 187.324C168.804 188.026 167.511 189.294 166.776 190.887H166.776Z" fill="#FFB6B6"/>
<path d="M216.643 277.514C216.643 277.514 213.826 280.011 209.82 273.115C206.613 267.593 190.618 242.87 188.353 234.299C187.111 234.335 185.892 233.955 184.889 233.222C183.886 232.488 183.156 231.442 182.813 230.247L199.994 223.581C203.729 225.448 202.692 228.035 201.745 229.374L208.144 238.969L229.428 262.847L218.712 275.745L216.643 277.514Z" fill="#5D55FA"/>
<path d="M385.898 56.9416C376.763 47.94 364.564 42.9719 352.33 39.7935C338.482 36.1956 324.162 34.0762 310.015 32.0428C295.271 29.9237 280.469 28.2892 265.608 27.1393C250.767 25.9955 235.899 25.3407 221.005 25.1749C207.733 25.0263 194.372 25.0217 181.165 26.4937C168.725 27.8802 156.315 30.6624 145.1 36.3743C135.117 41.3492 126.73 49.0236 120.892 58.5254C115.525 67.3698 112.334 77.972 113.443 88.3684C113.964 93.4877 115.558 98.4398 118.122 102.901C121.128 107.832 124.959 112.21 129.448 115.844C138.714 123.666 149.794 129.384 157.765 138.681C159.87 141.117 161.709 143.77 163.25 146.596C164.408 148.739 165.71 150.583 167.863 151.834C169.785 152.93 171.988 153.433 174.196 153.279C176.403 153.126 178.516 152.322 180.267 150.969C182.75 149.021 184.534 146.018 186.455 143.545L193.156 134.925C193.64 134.152 194.201 133.43 194.831 132.77C195.282 132.397 194.537 132.725 194.685 132.632C194.766 132.581 194.909 132.61 194.998 132.573C195.444 132.445 195.902 132.36 196.364 132.32C201.257 131.42 206.16 130.579 211.074 129.796C229.217 126.87 247.477 124.456 265.814 123.155C275.265 122.4 284.751 122.174 294.228 122.477C306.482 122.978 318.567 125.411 330.775 126.46C343.92 127.59 357.727 127.434 370.114 122.367C380.027 118.311 389.232 111.488 394.6 102.064C397.147 97.6069 398.656 92.6331 399.015 87.5125C399.67 75.8978 394.021 64.9453 385.898 56.9416Z" fill="#E6E6E6"/>
<path d="M213.699 34.6942C211.361 34.6942 209.025 34.7066 206.69 34.7314C184.272 34.9692 161.102 36.7812 143.519 48.3336C127.913 58.5878 116.975 81.4287 126.232 97.8093C130.482 105.331 138.183 110.806 146.337 116.602C149.532 118.874 152.838 121.224 156.005 123.754C162.924 129.281 169.439 136.699 173.187 145.04L189.65 123.861L192.76 123.265C195.753 122.693 266.478 109.286 304.144 113.638C307.608 114.039 311.11 114.5 314.496 114.945C329.798 116.958 344.251 118.857 358.126 116.052C372.611 113.122 388.516 101.938 389.463 86.9825C390.111 76.7438 383.448 65.5117 372.489 58.3673C361.407 51.1438 347.586 48.1614 334.379 45.7256C294.571 38.3927 254.177 34.7003 213.699 34.6942Z" fill="white"/>
<path d="M341.46 67.283H182.476C181.558 67.283 180.679 66.9187 180.03 66.2702C179.381 65.6216 179.017 64.7421 179.017 63.8249C179.017 62.9078 179.381 62.0282 180.03 61.3797C180.679 60.7312 181.558 60.3668 182.476 60.3668H341.46C342.378 60.3668 343.258 60.7312 343.906 61.3797C344.555 62.0282 344.92 62.9078 344.92 63.8249C344.92 64.7421 344.555 65.6216 343.906 66.2702C343.258 66.9187 342.378 67.283 341.46 67.283Z" fill="#5D55FA"/>
<path d="M341.46 88.5092H182.476C181.558 88.5092 180.679 88.1449 180.03 87.4964C179.381 86.8478 179.017 85.9683 179.017 85.0511C179.017 84.134 179.381 83.2544 180.03 82.6059C180.679 81.9574 181.558 81.593 182.476 81.593H341.46C342.378 81.593 343.258 81.9574 343.906 82.6059C344.555 83.2544 344.92 84.134 344.92 85.0511C344.92 85.9683 344.555 86.8478 343.906 87.4964C343.258 88.1449 342.378 88.5092 341.46 88.5092Z" fill="#5D55FA"/>
<path d="M201.003 109.735H182.476C181.558 109.735 180.679 109.371 180.03 108.722C179.381 108.074 179.017 107.194 179.017 106.277C179.017 105.36 179.381 104.48 180.03 103.832C180.679 103.183 181.558 102.819 182.476 102.819H201.003C201.921 102.819 202.8 103.183 203.449 103.832C204.098 104.48 204.462 105.36 204.462 106.277C204.462 107.194 204.098 108.074 203.449 108.722C202.8 109.371 201.921 109.735 201.003 109.735Z" fill="#5D55FA"/>
<path d="M172.278 192.682C180.398 192.682 186.981 186.101 186.981 177.984C186.981 169.866 180.398 163.286 172.278 163.286C164.158 163.286 157.575 169.866 157.575 177.984C157.575 186.101 164.158 192.682 172.278 192.682Z" fill="#E6E6E6"/>
<path d="M129.5 358.726C131.609 355.557 130.361 351.021 126.712 348.594C123.064 346.167 118.396 346.769 116.288 349.938C114.179 353.107 115.427 357.643 119.075 360.069C122.724 362.496 127.391 361.894 129.5 358.726Z" fill="#F2F2F2"/>
<path d="M444.959 357.725C447.068 354.557 445.82 350.021 442.171 347.594C438.523 345.167 433.855 345.769 431.746 348.938C429.638 352.106 430.886 356.642 434.534 359.069C438.183 361.496 442.85 360.894 444.959 357.725Z" fill="#E6E6E6"/>
<path d="M325.874 243.345C327.983 240.176 326.734 235.64 323.086 233.214C319.437 230.787 314.77 231.389 312.661 234.557C310.552 237.726 311.801 242.262 315.449 244.689C319.098 247.116 323.765 246.514 325.874 243.345Z" fill="#E6E6E6"/>
<path d="M277.412 557.1H268.82L264.733 523.974H277.412V557.1Z" fill="#FFB6B6"/>
<path d="M281.946 571.981H275.785L274.686 566.166L271.869 571.981H255.529C254.746 571.981 253.983 571.73 253.352 571.266C252.721 570.802 252.255 570.149 252.022 569.401C251.789 568.654 251.801 567.851 252.056 567.111C252.312 566.371 252.797 565.732 253.442 565.287L266.49 556.278V550.399L280.216 551.218L281.946 571.981Z" fill="#2F2E41"/>
<path d="M229.155 557.1H220.564L216.476 523.974H229.155V557.1Z" fill="#FFB6B6"/>
<path d="M233.689 571.981H227.528L226.429 566.166L223.612 571.981H207.272C206.489 571.981 205.726 571.73 205.095 571.266C204.464 570.802 203.998 570.149 203.765 569.401C203.532 568.654 203.544 567.851 203.799 567.111C204.055 566.371 204.54 565.732 205.185 565.287L218.234 556.278V550.399L231.959 551.218L233.689 571.981Z" fill="#2F2E41"/>
<path d="M281.119 528.533H281.025L279.373 474.671C280.442 472.609 280.985 470.315 280.952 467.993C280.92 465.671 280.314 463.393 279.188 461.361L278.951 460.933L279.565 458.091C280.353 454.439 279.991 450.634 278.53 447.196L276.989 396.952C282.495 361.275 256.252 338.008 256.252 338.008H216.94L208.5 366.997C202.921 421.34 203.933 474.295 212.787 525.6L212.546 525.722C211.676 526.022 211.304 527.225 211.713 528.41C212.122 529.595 213.158 530.312 214.027 530.013L234.789 529.291C235.658 528.991 236.031 527.787 235.621 526.602C235.212 525.417 234.176 524.7 233.307 525L231.895 525.714L234.906 473.738L234.572 464.245L235.26 453.474L238.442 405.03L250.488 464.603L262.792 529.133C262.453 529.44 262.215 529.843 262.109 530.288C262.003 530.733 262.035 531.2 262.201 531.627C262.366 532.054 262.657 532.42 263.035 532.679C263.413 532.937 263.86 533.074 264.318 533.073H281.119C281.721 533.073 282.298 532.834 282.724 532.408C283.15 531.982 283.389 531.405 283.389 530.803C283.389 530.201 283.15 529.624 282.724 529.198C282.298 528.772 281.721 528.533 281.119 528.533H281.119Z" fill="#2F2E41"/>
<path d="M262.785 377.929C263.672 377.383 264.429 376.649 265.001 375.778C265.574 374.908 265.949 373.923 266.1 372.892C266.25 371.861 266.173 370.81 265.874 369.813C265.574 368.815 265.059 367.895 264.365 367.118L270.386 302.499L254.932 303.693L253.873 366.835C252.644 368.087 251.917 369.746 251.83 371.497C251.743 373.249 252.301 374.972 253.4 376.339C254.498 377.707 256.061 378.624 257.79 378.917C259.52 379.21 261.297 378.858 262.785 377.929V377.929Z" fill="#FFB6B6"/>
<path d="M266.761 268.297C266.761 268.297 270.487 267.752 270.055 275.715C269.71 282.091 271.352 321.387 268.546 329.796C269.604 330.447 270.415 331.432 270.852 332.596C271.289 333.759 271.326 335.034 270.957 336.221L252.932 332.381C250.832 328.772 251.267 325.068 252.794 324.467L252.704 312.936L248.72 274.925L264.061 268.643L266.761 268.297Z" fill="#5D55FA"/>
</g>
<defs>
<clipPath id="clip0_225_1194">
<rect width="508" height="574" fill="white"/>
</clipPath>
</defs>
</svg>
