<svg width="287" height="325" viewBox="0 0 287 325" fill="none" xmlns="http://www.w3.org/2000/svg">
<path d="M286.651 0H0V324.355H286.651V0Z" fill="#E6E6E6"/>
<path d="M281.039 6.86206H5.11108V317.494H281.039V6.86206Z" fill="white"/>
<path d="M143.326 306.449C151.868 306.449 158.793 299.524 158.793 290.982C158.793 282.44 151.868 275.515 143.326 275.515C134.784 275.515 127.859 282.44 127.859 290.982C127.859 299.524 134.784 306.449 143.326 306.449Z" fill="#E6E6E6"/>
<path d="M140.713 116.819H51.876V125.907H140.713V116.819Z" fill="#E6E6E6"/>
<path d="M185.955 144.052H51.876V153.14H185.955V144.052Z" fill="#5D55FA"/>
<path d="M172.794 171.456H51.876V180.544H172.794V171.456Z" fill="#E6E6E6"/>
<path d="M238.599 198.136H51.876V207.224H238.599V198.136Z" fill="#5D55FA"/>
<path d="M205.992 223.545H53.8169V232.633H205.992V223.545Z" fill="#E6E6E6"/>
<path d="M143.077 25.2621C136.571 25.2618 130.212 27.1904 124.803 30.8043C119.394 34.4181 115.178 39.5547 112.688 45.5646C110.199 51.5745 109.547 58.1878 110.816 64.568C112.085 70.9483 115.217 76.8091 119.816 81.4092C124.416 86.0093 130.276 89.1421 136.657 90.4116C143.037 91.681 149.65 91.03 155.66 88.5409C161.67 86.0518 166.807 81.8363 170.422 76.4276C174.036 71.0189 175.966 64.6599 175.966 58.1547V58.153C175.966 53.8337 175.115 49.5567 173.462 45.5662C171.809 41.5757 169.387 37.9498 166.332 34.8956C163.278 31.8414 159.652 29.4187 155.662 27.7657C151.671 26.1128 147.394 25.2621 143.075 25.2621H143.077ZM143.077 35.1285C145.028 35.1285 146.936 35.7071 148.558 36.7912C150.181 37.8754 151.445 39.4163 152.192 41.2191C152.939 43.022 153.134 45.0058 152.754 46.9197C152.373 48.8336 151.433 50.5916 150.053 51.9714C148.674 53.3513 146.916 54.291 145.002 54.6717C143.088 55.0524 141.104 54.857 139.301 54.1103C137.498 53.3635 135.957 52.0989 134.873 50.4764C133.789 48.8539 133.21 46.9463 133.21 44.9949C133.21 42.3782 134.25 39.8686 136.1 38.0183C137.95 36.168 140.46 35.1285 143.077 35.1285V35.1285ZM143.077 82.6297C139.179 82.6119 135.344 81.6434 131.905 79.8081C128.466 77.9728 125.527 75.3263 123.342 72.098C123.501 65.5198 136.499 61.8989 143.077 61.8989C149.655 61.8989 162.653 65.5198 162.811 72.098C160.624 75.3239 157.684 77.9686 154.246 79.8036C150.808 81.6386 146.974 82.6086 143.077 82.6297Z" fill="#5D55FA"/>
</svg>
