<svg width="350" height="385" viewBox="0 0 350 385" fill="none" xmlns="http://www.w3.org/2000/svg">
<path d="M52.5757 130.687H350V228.326H338.734V253.862L313.198 228.326H52.5757V130.687Z" fill="#E6E6E6"/>
<path d="M341.738 140.195H60.8369V218.307H341.738V140.195Z" fill="white"/>
<path d="M218.673 163H83.4258V167.105H218.673V163Z" fill="#5D55FA"/>
<path d="M319.149 177.198H83.4258V181.303H319.149V177.198Z" fill="#E6E6E6"/>
<path d="M318.919 191.397H83.4258V195.501H318.919V191.397Z" fill="#E6E6E6"/>
<path d="M297.424 261.373H0V359.013H11.2661V384.549L36.8023 359.013H297.424V261.373Z" fill="#E6E6E6"/>
<path d="M289.163 270.882H8.26172V348.993H289.163V270.882Z" fill="white"/>
<path d="M168.351 294.438H33.104V298.542H168.351V294.438Z" fill="#5D55FA"/>
<path d="M268.828 308.636H33.104V312.741H268.828V308.636Z" fill="#E6E6E6"/>
<path d="M268.597 322.835H33.104V326.939H268.597V322.835Z" fill="#E6E6E6"/>
<path d="M297.424 0H0V97.6392H11.2661V123.176L36.8023 97.6392H297.424V0Z" fill="#E6E6E6"/>
<path d="M289.163 9.50836H8.26172V87.6199H289.163V9.50836Z" fill="white"/>
<path d="M168.351 33.0645H33.104V37.1689H168.351V33.0645Z" fill="#5D55FA"/>
<path d="M268.828 47.2631H33.104V51.3675H268.828V47.2631Z" fill="#E6E6E6"/>
<path d="M268.597 61.4614H33.104V65.5658H268.597V61.4614Z" fill="#E6E6E6"/>
</svg>
