<svg width="436" height="313" viewBox="0 0 436 313" fill="none" xmlns="http://www.w3.org/2000/svg">
<path d="M436 233H0V235H436V233Z" fill="#E6E6E6"/>
<path d="M436 155H0V157H436V155Z" fill="#E6E6E6"/>
<path d="M436 77H0V79H436V77Z" fill="#E6E6E6"/>
<path d="M349.8 0H347.8V312H349.8V0Z" fill="#E6E6E6"/>
<path d="M262.6 0H260.6V312H262.6V0Z" fill="#E6E6E6"/>
<path d="M175.4 0H173.4V312H175.4V0Z" fill="#E6E6E6"/>
<path d="M88.2002 0H86.2002V312H88.2002V0Z" fill="#E6E6E6"/>
<path d="M262 78H87V156H262V78Z" fill="#5D55FA"/>
<path d="M87 150V234L178 153L87 150Z" fill="#5D55FA"/>
<path d="M262 153V156L260.86 157.01L258.56 159.05C213.83 160.4 177.7 192.44 176.07 232.17L174.02 233.99L174 234V150L262 153Z" fill="#5D55FA"/>
<path d="M261.5 157C261.29 157 261.07 157 260.86 157.01C213.28 157.31 174.61 191.63 174.02 233.99C174 234.33 174 234.66 174 235C174 278.01 213.25 313 261.5 313C309.75 313 349 278.01 349 235C349 191.99 309.75 157 261.5 157ZM261.5 311C214.36 311 176 276.91 176 235C176 234.05 176.02 233.11 176.07 232.17C177.7 192.44 213.83 160.4 258.56 159.05C259.53 159.01 260.51 159 261.5 159C308.64 159 347 193.09 347 235C347 276.91 308.64 311 261.5 311Z" fill="#E6E6E6"/>
<path d="M213.5 234.016L208.5 233.988C208.502 233.543 209.303 189.508 260.451 186.454L260.749 191.445C214.361 194.215 213.513 232.393 213.5 234.016Z" fill="#E6E6E6"/>
<path d="M311.98 233C311.787 227.3 310.45 221.698 308.049 216.525C305.647 211.352 302.23 206.715 298 202.89C288.056 193.822 275.057 188.841 261.6 188.94H261.5C234.03 188.94 211.61 208.61 211.02 233C211 233.33 211 233.67 211 234C211 246.76 216.97 258.29 226.55 266.49C236.331 274.708 248.725 279.166 261.5 279.06H261.6C289.4 279.01 312 258.82 312 234C312 233.67 312 233.33 311.98 233Z" fill="#E6E6E6"/>
<path d="M298 202.89L296.5 204.22L228.05 265.16L226.55 266.49C216.97 258.29 211 246.76 211 234C211 233.67 211 233.33 211.02 233C211.61 208.61 234.03 188.94 261.5 188.94H261.6C275.057 188.841 288.056 193.822 298 202.89V202.89Z" fill="#5D55FA"/>
</svg>
