<svg width="420" height="429" viewBox="0 0 420 429" fill="none" xmlns="http://www.w3.org/2000/svg">
<path d="M57.397 291.778C58.4302 293.944 59.52 296.121 60.6382 298.244L61.6992 297.685C60.5888 295.576 59.5058 293.415 58.4799 291.262L57.397 291.778Z" fill="#CCCCCC"/>
<path d="M64.1348 304.577C65.3389 306.656 66.6021 308.738 67.8882 310.765L68.9009 310.124C67.624 308.11 66.3731 306.042 65.1729 303.977L64.1348 304.577Z" fill="#CCCCCC"/>
<path d="M51.7139 278.49C52.5649 280.725 53.4761 282.98 54.4209 285.19L55.5249 284.719C54.5859 282.524 53.6821 280.284 52.8359 278.063L51.7139 278.49Z" fill="#CCCCCC"/>
<path d="M71.8911 316.794C73.2578 318.769 74.6851 320.744 76.1309 322.664L77.0889 321.942C75.6529 320.035 74.2359 318.073 72.8779 316.111L71.8911 316.794Z" fill="#CCCCCC"/>
<path d="M198.012 35.8028L198.157 36.9938V37.0008C200.528 36.7098 202.937 36.4658 205.322 36.2708L205.222 35.0708C202.825 35.2658 200.399 35.5118 198.012 35.8028Z" fill="#CCCCCC"/>
<path d="M41.3491 221.875L40.1489 221.924C40.2471 224.328 40.394 226.759 40.5879 229.159L41.7852 229.062C41.5928 226.681 41.4492 224.263 41.3491 221.875Z" fill="#CCCCCC"/>
<path d="M47.1128 264.745C47.7832 267.054 48.5098 269.382 49.2739 271.663L50.4131 271.282C49.6538 269.016 48.9321 266.704 48.2661 264.411L47.1128 264.745Z" fill="#CCCCCC"/>
<path d="M41.1992 214.481C41.1992 212.152 41.2441 209.797 41.333 207.481L40.1328 207.435C40.043 209.766 39.998 212.137 39.998 214.478V214.678H41.1982L41.1992 214.481Z" fill="#CCCCCC"/>
<path d="M41.3188 236.37C41.6088 238.762 41.9512 241.176 42.3359 243.545L43.52 243.353C43.1382 241 42.7979 238.603 42.5098 236.226L41.3188 236.37Z" fill="#CCCCCC"/>
<path d="M41.7549 200.293C41.9429 197.906 42.1812 195.496 42.457 193.128L41.2651 192.986C40.981 195.369 40.7422 197.798 40.5527 200.198L41.7529 200.292L41.7549 200.293Z" fill="#CCCCCC"/>
<path d="M80.6011 328.366C82.1211 330.222 83.7012 332.081 85.3008 333.881L86.1968 333.085C84.6079 331.294 83.0371 329.451 81.5298 327.607L80.6011 328.366Z" fill="#CCCCCC"/>
<path d="M177.028 389.32C179.36 389.89 181.739 390.423 184.101 390.901L184.339 389.725C181.993 389.254 179.63 388.722 177.313 388.154L177.028 389.32Z" fill="#CCCCCC"/>
<path d="M169.641 41.6179L169.976 42.7699C172.268 42.1009 174.607 41.4749 176.929 40.8999L176.641 39.7349C174.304 40.3179 171.949 40.9468 169.641 41.6179Z" fill="#CCCCCC"/>
<path d="M183.709 38.1389L183.95 39.3138L183.949 39.3148C186.288 38.8358 188.668 38.4008 191.03 38.0128L190.837 36.8289C188.46 37.2169 186.062 37.6569 183.709 38.1389Z" fill="#CCCCCC"/>
<path d="M191.232 392.198C193.602 392.573 196.016 392.911 198.409 393.198L198.551 392.013C196.175 391.727 193.776 391.391 191.422 391.013L191.232 392.198Z" fill="#CCCCCC"/>
<path d="M163.102 385.304C165.381 386.062 167.71 386.785 170.024 387.453L170.356 386.3C168.058 385.637 165.745 384.919 163.481 384.165L163.102 385.304Z" fill="#CCCCCC"/>
<path d="M100.666 349.241C102.467 350.841 104.325 352.419 106.188 353.941L106.951 353.009C105.101 351.497 103.255 349.926 101.466 348.341L100.666 349.241Z" fill="#CCCCCC"/>
<path d="M111.9 358.416C113.819 359.859 115.799 361.288 117.783 362.659L118.465 361.672C116.494 360.309 114.528 358.891 112.621 357.457L111.9 358.416Z" fill="#CCCCCC"/>
<path d="M91.0781 338.368L90.2129 339.2C91.8828 340.936 93.6079 342.66 95.3389 344.323L96.17 343.457C94.4512 341.806 92.7368 340.094 91.0781 338.368Z" fill="#CCCCCC"/>
<path d="M149.514 380.155C151.735 381.101 154.003 382.013 156.254 382.866L156.684 381.747C154.443 380.901 152.19 379.995 149.984 379.055L149.514 380.155Z" fill="#CCCCCC"/>
<path d="M136.393 373.926C138.523 375.046 140.708 376.138 142.888 377.173L143.402 376.088C141.237 375.064 139.067 373.976 136.951 372.864L136.393 373.926Z" fill="#CCCCCC"/>
<path d="M123.833 366.663C125.861 367.948 127.95 369.212 130.041 370.421L130.641 369.383C128.564 368.181 126.489 366.925 124.475 365.649L123.833 366.663Z" fill="#CCCCCC"/>
<path d="M43.6421 250.674C44.1231 253.029 44.6582 255.407 45.2349 257.744L46.3999 257.457C45.8281 255.134 45.2959 252.773 44.8179 250.434L43.6421 250.674Z" fill="#CCCCCC"/>
<path d="M118.288 67.4138C120.252 66.0518 122.268 64.7148 124.279 63.4378L123.636 62.4248C121.612 63.7068 119.582 65.0538 117.604 66.4248L118.288 67.4108V67.4138Z" fill="#CCCCCC"/>
<path d="M43.456 186C43.8369 183.64 44.2641 181.257 44.7368 178.916L43.561 178.679C43.0849 181.035 42.6508 183.435 42.271 185.811L43.4561 186.001L43.456 186Z" fill="#CCCCCC"/>
<path d="M90.9482 90.7197L90.082 89.8887C88.416 91.6257 86.7632 93.4197 85.1699 95.2197L86.0688 96.0187C87.6484 94.226 89.2935 92.4454 90.9482 90.7197Z" fill="#CCCCCC"/>
<path d="M96.0371 85.6299L96.0361 85.6289L96.0371 85.6299Z" fill="#CCCCCC"/>
<path d="M136.71 56.2238L136.15 55.1628C134.02 56.2808 131.895 57.4628 129.82 58.6628L130.42 59.7008C132.481 58.5078 134.596 57.3368 136.71 56.2238Z" fill="#CCCCCC"/>
<path d="M101.326 80.7457L100.526 79.8457C98.727 81.4437 96.936 83.0987 95.2051 84.7647L96.0361 85.6287C97.7559 83.9737 99.5352 82.3287 101.326 80.7457Z" fill="#CCCCCC"/>
<path d="M398.657 192.392C398.367 190.009 398.021 187.595 397.633 185.217L396.448 185.411C396.835 187.773 397.177 190.17 397.466 192.537L398.657 192.392Z" fill="#CCCCCC"/>
<path d="M398.639 206.885L399.841 206.833C399.741 204.434 399.595 201.999 399.395 199.599L398.195 199.699C398.391 202.085 398.539 204.502 398.639 206.885Z" fill="#CCCCCC"/>
<path d="M163.104 44.9217L162.723 43.7837C160.441 44.5497 158.145 45.3716 155.9 46.2277L156.327 47.3487C158.558 46.5007 160.838 45.6817 163.104 44.9217Z" fill="#CCCCCC"/>
<path d="M143.128 52.998C145.277 51.973 147.478 50.977 149.671 50.038L149.199 48.938C146.991 49.884 144.775 50.886 142.611 51.918L143.128 53.001L143.128 52.998Z" fill="#CCCCCC"/>
<path d="M106.798 76.0719C108.647 74.5579 110.55 73.0619 112.453 71.6289L111.731 70.6709C109.815 72.1159 107.899 73.6209 106.037 75.1459L106.798 76.0739V76.0719Z" fill="#CCCCCC"/>
<path d="M55.3972 144.555L55.3892 144.552L55.3882 144.554L55.3972 144.555Z" fill="#CCCCCC"/>
<path d="M58.3589 137.975L57.2749 137.461C56.2422 139.639 55.2402 141.868 54.2969 144.085L55.3892 144.552C56.3276 142.35 57.3222 140.137 58.3589 137.975Z" fill="#CCCCCC"/>
<path d="M46.3042 171.888C46.8711 169.568 47.4941 167.227 48.1543 164.938L47.001 164.606C46.3379 166.914 45.709 169.27 45.1382 171.606L46.3042 171.891V171.888Z" fill="#CCCCCC"/>
<path d="M52.7031 151.251L51.5801 150.827C50.7261 153.086 49.9082 155.39 49.1489 157.675L50.2881 158.054C51.04 155.784 51.853 153.496 52.7031 151.251Z" fill="#CCCCCC"/>
<path d="M61.5758 131.518L61.5718 131.516L61.5688 131.521L61.5758 131.518Z" fill="#CCCCCC"/>
<path d="M86.0699 96.0198L86.0689 96.0188L86.0679 96.0198H86.0699Z" fill="#CCCCCC"/>
<path d="M81.4111 101.506L80.481 100.747C78.961 102.61 77.4561 104.531 76.0098 106.456L76.9658 107.174C78.4019 105.264 79.895 103.357 81.4111 101.506Z" fill="#CCCCCC"/>
<path d="M65.0518 125.202L64.0132 124.602C62.813 126.69 61.6318 128.829 60.5132 130.961L61.5718 131.516C62.6821 129.397 63.852 127.277 65.0518 125.202Z" fill="#CCCCCC"/>
<path d="M76.9689 107.177L76.9659 107.175L76.9629 107.178L76.9689 107.177Z" fill="#CCCCCC"/>
<path d="M72.7568 113.022L71.77 112.34C70.4038 114.32 69.0571 116.357 67.77 118.392L68.7803 119.032C70.0586 117.011 71.394 114.99 72.7568 113.022Z" fill="#CCCCCC"/>
<path d="M68.7839 119.034L68.7799 119.032L68.7769 119.037L68.7839 119.034Z" fill="#CCCCCC"/>
<path d="M363.756 106.128L362.799 106.851C364.237 108.755 365.656 110.716 367.017 112.677L368.002 111.994C366.632 110.019 365.203 108.045 363.756 106.128Z" fill="#CCCCCC"/>
<path d="M367.137 316.092L368.124 316.774V316.779C369.496 314.795 370.844 312.76 372.131 310.726L371.117 310.084C369.837 312.099 368.5 314.121 367.137 316.092Z" fill="#CCCCCC"/>
<path d="M372.01 118.023L370.998 118.667C372.277 120.678 373.533 122.744 374.733 124.81L375.77 124.207C374.562 122.123 373.297 120.047 372.01 118.023Z" fill="#CCCCCC"/>
<path d="M379.277 130.539L378.216 131.099C379.33 133.207 380.415 135.367 381.442 137.518L382.525 137.002C381.491 134.839 380.398 132.662 379.277 130.539Z" fill="#CCCCCC"/>
<path d="M374.85 303.925L375.888 304.525H375.893C377.103 302.435 378.288 300.301 379.397 298.172L378.335 297.613C377.224 299.725 376.05 301.849 374.85 303.925Z" fill="#CCCCCC"/>
<path d="M354.571 94.9277L353.671 95.7277C355.258 97.5127 356.83 99.3537 358.344 101.201L359.271 100.438C357.751 98.5777 356.171 96.7277 354.571 94.9277Z" fill="#CCCCCC"/>
<path d="M362.92 321.938C361.485 323.844 359.988 325.751 358.472 327.605L359.401 328.364V328.36C360.927 326.498 362.434 324.579 363.879 322.66L362.92 321.938Z" fill="#CCCCCC"/>
<path d="M343.813 343.46C342.091 345.114 340.311 346.757 338.523 348.341L339.32 349.237C341.119 347.643 342.911 345.99 344.644 344.326L343.813 343.46Z" fill="#CCCCCC"/>
<path d="M344.513 84.4939L343.683 85.3608C345.407 87.0118 347.122 88.7218 348.783 90.4448L349.645 89.6118C347.974 87.8769 346.247 86.1559 344.513 84.4939Z" fill="#CCCCCC"/>
<path d="M381.568 291.163L382.652 291.679V291.678C383.688 289.501 384.688 287.275 385.633 285.057L384.533 284.586C383.593 286.79 382.595 289.002 381.568 291.163Z" fill="#CCCCCC"/>
<path d="M348.91 338.372L349.775 339.204L349.777 339.207C351.442 337.475 353.095 335.682 354.695 333.882L353.795 333.082C352.21 334.872 350.564 336.652 348.91 338.372Z" fill="#CCCCCC"/>
<path d="M396.401 250.478L396.398 250.477V250.478H396.401Z" fill="#CCCCCC"/>
<path d="M339.323 349.241L339.32 349.237L339.318 349.239L339.323 349.241Z" fill="#CCCCCC"/>
<path d="M396.513 243.157C396.132 245.519 395.699 247.902 395.224 250.239L396.398 250.477C396.878 248.124 397.315 245.726 397.698 243.348L396.513 243.157Z" fill="#CCCCCC"/>
<path d="M398.231 228.863C398.042 231.241 397.801 233.651 397.516 236.026L398.707 236.169C398.994 233.777 399.236 231.351 399.431 228.958L398.231 228.863Z" fill="#CCCCCC"/>
<path d="M398.797 214.077V214.477C398.797 216.864 398.749 219.286 398.655 221.677L399.855 221.724H399.857C399.952 219.317 400 216.88 399.997 214.472V214.077H398.797Z" fill="#CCCCCC"/>
<path d="M394.719 171.024L393.554 171.313C394.127 173.627 394.662 175.989 395.144 178.334L396.319 178.092C395.835 175.732 395.297 173.354 394.719 171.024Z" fill="#CCCCCC"/>
<path d="M387.23 277.894L388.352 278.319V278.318C389.209 276.058 390.03 273.755 390.791 271.474L389.653 271.094C388.896 273.361 388.081 275.649 387.23 277.894Z" fill="#CCCCCC"/>
<path d="M385.497 143.587L384.397 144.06C385.337 146.243 386.244 148.482 387.097 150.714L388.211 150.287C387.353 148.038 386.44 145.787 385.497 143.587Z" fill="#CCCCCC"/>
<path d="M390.665 157.111L389.527 157.493C390.289 159.762 391.013 162.07 391.681 164.362L392.833 164.027C392.165 161.719 391.431 159.392 390.665 157.111Z" fill="#CCCCCC"/>
<path d="M393.651 257.263C393.079 259.589 392.454 261.928 391.792 264.218L392.945 264.551V264.55C393.611 262.246 394.24 259.89 394.816 257.549L393.651 257.263Z" fill="#CCCCCC"/>
<path d="M212.505 35.8267V35.8327C214.888 35.7347 217.311 35.6827 219.702 35.6717V34.4717C217.293 34.4757 214.856 34.5267 212.456 34.6267L212.505 35.8267Z" fill="#CCCCCC"/>
<path d="M241.253 36.9239C243.625 37.2039 246.024 37.5379 248.384 37.9139L248.572 36.7319C246.194 36.3499 243.782 36.0149 241.394 35.7319L241.253 36.9239Z" fill="#CCCCCC"/>
<path d="M269.449 42.6056C271.746 43.2646 274.06 43.9806 276.327 44.7326L276.704 43.5936C274.422 42.8366 272.093 42.1166 269.781 41.4526L269.449 42.6056Z" fill="#CCCCCC"/>
<path d="M262.882 388.106L263.169 389.271V389.269C265.508 388.694 267.863 388.063 270.17 387.397L269.836 386.244C267.545 386.906 265.206 387.534 262.882 388.106Z" fill="#CCCCCC"/>
<path d="M241.644 391.979C239.272 392.266 236.862 392.508 234.481 392.698L234.581 393.894C236.978 393.702 239.402 393.459 241.788 393.171L241.644 391.979Z" fill="#CCCCCC"/>
<path d="M255.469 39.1958C257.815 39.6678 260.179 40.1938 262.496 40.7588L262.781 39.5928C260.448 39.0188 258.068 38.4938 255.706 38.0188L255.469 39.1958Z" fill="#CCCCCC"/>
<path d="M248.776 390.976L248.968 392.161V392.158C251.337 391.777 253.736 391.339 256.097 390.858L255.858 389.683C253.512 390.16 251.129 390.596 248.776 390.976Z" fill="#CCCCCC"/>
<path d="M205.621 393.913C208.022 394.103 210.455 394.246 212.855 394.34L212.901 393.137C210.515 393.044 208.101 392.902 205.715 392.713L205.621 393.913Z" fill="#CCCCCC"/>
<path d="M333.655 74.8918L332.897 75.8218C334.747 77.3298 336.594 78.8988 338.387 80.4838L339.182 79.5848C337.377 77.9919 335.517 76.4098 333.655 74.8918Z" fill="#CCCCCC"/>
<path d="M234.581 393.898V393.895H234.577L234.581 393.898Z" fill="#CCCCCC"/>
<path d="M226.901 35.804C229.288 35.8949 231.709 36.035 234.088 36.22L234.182 35.023C231.787 34.836 229.353 34.695 226.947 34.604L226.901 35.804Z" fill="#CCCCCC"/>
<path d="M220.1 393.279V394.479C222.502 394.478 224.94 394.429 227.348 394.334L227.3 393.134C224.908 393.229 222.486 393.279 220.1 393.279Z" fill="#CCCCCC"/>
<path d="M315.56 365.628L316.202 366.642L316.206 366.645C318.231 365.359 320.262 364.014 322.242 362.645L321.56 361.658C319.589 363.018 317.571 364.354 315.56 365.628Z" fill="#CCCCCC"/>
<path d="M276.708 384.099L277.088 385.237V385.236C279.369 384.475 281.665 383.655 283.915 382.8L283.488 381.679C281.254 382.528 278.973 383.342 276.708 384.099Z" fill="#CCCCCC"/>
<path d="M333.051 353.01C331.196 354.526 329.289 356.019 327.389 357.45L328.11 358.408C330.025 356.968 331.943 355.464 333.81 353.939L333.051 353.01Z" fill="#CCCCCC"/>
<path d="M309.788 58.4358L309.188 59.4748C311.259 60.6688 313.336 61.9228 315.359 63.2008L316 62.1868C313.963 60.8998 311.873 59.6358 309.788 58.4358Z" fill="#CCCCCC"/>
<path d="M328.111 358.409L328.11 358.408L328.111 358.409Z" fill="#CCCCCC"/>
<path d="M322.055 66.188L321.374 67.176C323.34 68.531 325.308 69.947 327.222 71.384L327.943 70.425C326.015 68.978 324.034 67.553 322.055 66.188Z" fill="#CCCCCC"/>
<path d="M283.558 46.0217L283.134 47.1448C285.375 47.9898 287.628 48.8928 289.834 49.8298L290.301 48.7218C288.081 47.7828 285.812 46.8727 283.558 46.0217Z" fill="#CCCCCC"/>
<path d="M290.148 379.001L290.619 380.101V380.104C292.828 379.161 295.046 378.161 297.21 377.132L296.694 376.048C294.548 377.071 292.342 378.064 290.148 379.001Z" fill="#CCCCCC"/>
<path d="M296.929 51.6987L296.416 52.7837C298.58 53.8077 300.752 54.8907 302.871 56.0007L303.429 54.9377C301.294 53.8198 299.108 52.7297 296.929 51.6987Z" fill="#CCCCCC"/>
<path d="M303.115 372.826L303.674 373.888L303.678 373.889C305.805 372.769 307.936 371.592 310.007 370.391L309.407 369.353C307.345 370.545 305.229 371.714 303.115 372.826Z" fill="#CCCCCC"/>
<path d="M189.052 71.0154C188.646 71.0099 188.257 70.8505 187.964 70.5693C187.67 70.2882 187.495 69.9063 187.472 69.5007L187.472 55.5407C187.49 55.1165 187.676 54.7168 187.987 54.4285C188.299 54.1402 188.712 53.9867 189.136 54.0012L250.884 54.0007C251.301 53.9883 251.707 54.1397 252.014 54.4225C252.321 54.7052 252.505 55.097 252.527 55.5139L252.528 69.4748C252.509 69.8968 252.325 70.2944 252.016 70.5822C251.706 70.87 251.297 71.025 250.875 71.0139H189.116C189.094 71.0149 189.073 71.0154 189.052 71.0154ZM189.087 55.4134C189.047 55.4135 189.008 55.4291 188.978 55.4569C188.949 55.4848 188.931 55.5228 188.929 55.5633L188.93 69.472C188.938 69.5086 188.96 69.5411 188.99 69.5638C189.02 69.5866 189.057 69.5981 189.094 69.5965L250.884 69.596C250.928 69.6005 250.973 69.5873 251.008 69.5593C251.043 69.5313 251.065 69.4906 251.071 69.4461L251.07 55.5408C251.061 55.5045 251.039 55.4724 251.009 55.4498C250.979 55.4272 250.943 55.4154 250.905 55.4163L189.094 55.4134H189.087Z" fill="#CCCCCC"/>
<path d="M189.052 44.0153C188.646 44.0098 188.257 43.8504 187.964 43.5693C187.67 43.2881 187.495 42.9062 187.472 42.5007L187.472 28.5407C187.491 28.1167 187.677 27.7175 187.988 27.4293C188.3 27.1412 188.712 26.9874 189.136 27.0011L250.884 27.0006C251.301 26.9889 251.706 27.1405 252.013 27.4232C252.32 27.7058 252.504 28.0972 252.527 28.5138L252.528 42.4748C252.511 42.8974 252.327 43.2963 252.018 43.5845C251.708 43.8727 251.297 44.027 250.875 44.0138H189.116C189.094 44.0149 189.073 44.0153 189.052 44.0153Z" fill="#E5E5E5"/>
<path d="M189.052 17.0152C188.646 17.0097 188.257 16.8503 187.964 16.5692C187.67 16.2881 187.495 15.9061 187.472 15.5006L187.472 1.5406C187.492 1.11687 187.677 0.717983 187.989 0.429974C188.3 0.141965 188.712 -0.0120838 189.136 0.00104931L250.884 0.000561033C251.301 -0.0104649 251.705 0.141393 252.012 0.423901C252.319 0.706409 252.504 1.09734 252.527 1.51374L252.528 15.4747C252.508 15.8965 252.324 16.294 252.015 16.5818C251.706 16.8695 251.297 17.0246 250.875 17.0137H189.116C189.094 17.0148 189.073 17.0152 189.052 17.0152Z" fill="#5D55FA"/>
<path d="M80 166.479H0V262.479H80V166.479Z" fill="#E6E6E6"/>
<path d="M77.4419 169.433H2.2959V259.608H77.4419V169.433Z" fill="white"/>
<path d="M38.5639 184.514H8.50586V188.271H38.5639V184.514Z" fill="#E6E6E6"/>
<path d="M53.9989 197.289H8.50586V201.046H53.9989V197.289Z" fill="#5D55FA"/>
<path d="M35.9029 210.063H8.50586V213.82H35.9029V210.063Z" fill="#E6E6E6"/>
<path d="M65.6819 222.838H8.50586V226.595H65.6819V222.838Z" fill="#5D55FA"/>
<path d="M65.6819 235.613H8.50586V239.37H65.6819V235.613Z" fill="#E6E6E6"/>
<path d="M161.894 359.979C161.587 359.979 161.293 360.101 161.076 360.318C160.859 360.536 160.737 360.83 160.736 361.137V427.821C160.737 428.128 160.859 428.422 161.076 428.64C161.293 428.857 161.587 428.979 161.894 428.979H294.106C294.413 428.979 294.708 428.857 294.925 428.64C295.142 428.422 295.264 428.128 295.264 427.821V361.137C295.264 360.83 295.142 360.536 294.925 360.318C294.708 360.101 294.413 359.979 294.106 359.979H161.894Z" fill="#E6E6E6"/>
<path d="M163.747 361.831C163.44 361.831 163.146 361.953 162.929 362.17C162.712 362.388 162.59 362.682 162.589 362.989V425.969C162.59 426.276 162.712 426.57 162.929 426.788C163.146 427.005 163.44 427.127 163.747 427.127H292.253C292.56 427.127 292.855 427.005 293.072 426.788C293.289 426.57 293.411 426.276 293.411 425.969V362.989C293.411 362.682 293.289 362.388 293.072 362.17C292.855 361.953 292.56 361.831 292.253 361.831H163.747Z" fill="white"/>
<path d="M202.299 402.351H174.977C174.548 402.351 174.136 402.18 173.832 401.876C173.528 401.572 173.357 401.16 173.356 400.73V373.408C173.357 372.979 173.528 372.567 173.832 372.263C174.136 371.959 174.548 371.788 174.977 371.787H202.299C202.729 371.788 203.141 371.959 203.445 372.263C203.749 372.567 203.92 372.979 203.92 373.408V400.73C203.92 401.16 203.749 401.572 203.445 401.876C203.141 402.18 202.729 402.351 202.299 402.351V402.351ZM174.977 372.251C174.67 372.252 174.376 372.374 174.159 372.591C173.942 372.808 173.82 373.102 173.819 373.409V400.731C173.82 401.038 173.942 401.333 174.159 401.55C174.376 401.767 174.67 401.889 174.977 401.889H202.299C202.607 401.889 202.901 401.767 203.118 401.55C203.335 401.333 203.457 401.038 203.457 400.731V373.408C203.457 373.101 203.335 372.807 203.118 372.59C202.901 372.373 202.607 372.251 202.299 372.25L174.977 372.251Z" fill="#3F3D56"/>
<path d="M241.661 402.351H214.339C213.91 402.351 213.498 402.18 213.194 401.876C212.89 401.572 212.719 401.16 212.718 400.73V373.408C212.719 372.979 212.89 372.567 213.194 372.263C213.498 371.959 213.91 371.788 214.339 371.787H241.661C242.091 371.788 242.503 371.959 242.807 372.263C243.111 372.567 243.282 372.979 243.282 373.408V400.73C243.282 401.16 243.111 401.572 242.807 401.876C242.503 402.18 242.091 402.351 241.661 402.351V402.351ZM214.339 372.251C214.032 372.252 213.738 372.374 213.521 372.591C213.304 372.808 213.182 373.102 213.181 373.409V400.731C213.182 401.038 213.304 401.333 213.521 401.55C213.738 401.767 214.032 401.889 214.339 401.889H241.661C241.968 401.889 242.263 401.767 242.48 401.55C242.697 401.333 242.819 401.038 242.819 400.731V373.408C242.819 373.101 242.697 372.807 242.48 372.59C242.263 372.373 241.968 372.251 241.661 372.25L214.339 372.251Z" fill="#E6E6E6"/>
<path d="M216.423 374.33C216.116 374.33 215.822 374.452 215.605 374.669C215.387 374.886 215.265 375.181 215.265 375.488V398.642C215.265 398.949 215.387 399.243 215.605 399.46C215.822 399.677 216.116 399.799 216.423 399.8H239.581C239.888 399.799 240.183 399.677 240.4 399.46C240.617 399.243 240.739 398.949 240.739 398.642V375.492C240.74 375.339 240.71 375.189 240.652 375.048C240.594 374.907 240.509 374.779 240.402 374.671C240.294 374.563 240.167 374.478 240.026 374.419C239.886 374.36 239.735 374.33 239.583 374.33H216.423Z" fill="#E6E6E6"/>
<path d="M177.178 374.33C176.87 374.33 176.576 374.452 176.359 374.669C176.142 374.886 176.02 375.181 176.02 375.488V398.642C176.02 398.949 176.142 399.243 176.359 399.46C176.576 399.677 176.87 399.799 177.178 399.8H200.332C200.639 399.799 200.933 399.677 201.15 399.46C201.367 399.243 201.489 398.949 201.49 398.642V375.492C201.489 375.185 201.367 374.89 201.15 374.673C200.933 374.456 200.639 374.334 200.332 374.334L177.178 374.33Z" fill="#3F3D56"/>
<path d="M255.666 374.33C255.359 374.33 255.065 374.452 254.848 374.669C254.631 374.886 254.509 375.181 254.508 375.488V398.642C254.508 398.794 254.537 398.945 254.595 399.085C254.653 399.226 254.738 399.354 254.846 399.462C254.953 399.57 255.081 399.656 255.221 399.714C255.361 399.773 255.512 399.803 255.664 399.804H278.82C279.127 399.803 279.422 399.681 279.639 399.464C279.856 399.247 279.978 398.953 279.978 398.646V375.492C279.978 375.185 279.856 374.89 279.639 374.673C279.422 374.456 279.127 374.334 278.82 374.334L255.666 374.33Z" fill="#5D55FA"/>
<path d="M281.023 402.351H253.706C253.277 402.351 252.865 402.18 252.561 401.876C252.257 401.572 252.086 401.16 252.085 400.73V373.408C252.086 372.979 252.257 372.567 252.561 372.263C252.865 371.959 253.277 371.788 253.706 371.787H281.028C281.458 371.788 281.87 371.959 282.174 372.263C282.478 372.567 282.649 372.979 282.649 373.408V400.73C282.649 400.943 282.607 401.155 282.525 401.351C282.443 401.548 282.324 401.727 282.173 401.877C282.022 402.028 281.843 402.147 281.646 402.229C281.449 402.31 281.238 402.352 281.024 402.351H281.023ZM253.701 372.251C253.394 372.252 253.1 372.374 252.883 372.591C252.666 372.808 252.544 373.102 252.543 373.409V400.731C252.544 401.038 252.666 401.333 252.883 401.55C253.1 401.767 253.394 401.889 253.701 401.889H281.023C281.33 401.889 281.625 401.767 281.842 401.55C282.059 401.333 282.181 401.038 282.181 400.731V373.408C282.181 373.101 282.059 372.807 281.842 372.59C281.625 372.373 281.33 372.251 281.023 372.25L253.701 372.251Z" fill="#5D55FA"/>
<path opacity="0.8" d="M217.002 415.086C219.176 415.086 220.938 413.324 220.938 411.15C220.938 408.976 219.176 407.214 217.002 407.214C214.829 407.214 213.066 408.976 213.066 411.15C213.066 413.324 214.829 415.086 217.002 415.086Z" fill="#E6E6E6"/>
<path opacity="0.4" d="M239.23 415.086C241.404 415.086 243.166 413.324 243.166 411.15C243.166 408.976 241.404 407.214 239.23 407.214C237.057 407.214 235.294 408.976 235.294 411.15C235.294 413.324 237.057 415.086 239.23 415.086Z" fill="#E6E6E6"/>
<path opacity="0.6" d="M228.116 415.086C230.29 415.086 232.052 413.324 232.052 411.15C232.052 408.976 230.29 407.214 228.116 407.214C225.942 407.214 224.18 408.976 224.18 411.15C224.18 413.324 225.942 415.086 228.116 415.086Z" fill="#E6E6E6"/>
<path opacity="0.8" d="M177.639 415.086C179.813 415.086 181.575 413.324 181.575 411.15C181.575 408.976 179.813 407.214 177.639 407.214C175.465 407.214 173.703 408.976 173.703 411.15C173.703 413.324 175.465 415.086 177.639 415.086Z" fill="#3F3D56"/>
<path opacity="0.4" d="M199.867 415.086C202.041 415.086 203.803 413.324 203.803 411.15C203.803 408.976 202.041 407.214 199.867 407.214C197.693 407.214 195.931 408.976 195.931 411.15C195.931 413.324 197.693 415.086 199.867 415.086Z" fill="#3F3D56"/>
<path opacity="0.6" d="M188.753 415.086C190.927 415.086 192.689 413.324 192.689 411.15C192.689 408.976 190.927 407.214 188.753 407.214C186.58 407.214 184.817 408.976 184.817 411.15C184.817 413.324 186.58 415.086 188.753 415.086Z" fill="#3F3D56"/>
<path opacity="0.8" d="M256.364 415.086C258.538 415.086 260.3 413.324 260.3 411.15C260.3 408.976 258.538 407.214 256.364 407.214C254.19 407.214 252.428 408.976 252.428 411.15C252.428 413.324 254.19 415.086 256.364 415.086Z" fill="#5D55FA"/>
<path opacity="0.4" d="M278.592 415.086C280.766 415.086 282.528 413.324 282.528 411.15C282.528 408.976 280.766 407.214 278.592 407.214C276.418 407.214 274.656 408.976 274.656 411.15C274.656 413.324 276.418 415.086 278.592 415.086Z" fill="#5D55FA"/>
<path opacity="0.6" d="M267.478 415.086C269.652 415.086 271.414 413.324 271.414 411.15C271.414 408.976 269.652 407.214 267.478 407.214C265.305 407.214 263.542 408.976 263.542 411.15C263.542 413.324 265.305 415.086 267.478 415.086Z" fill="#5D55FA"/>
<path d="M400 234.479C411.046 234.479 420 225.524 420 214.479C420 203.433 411.046 194.479 400 194.479C388.954 194.479 380 203.433 380 214.479C380 225.524 388.954 234.479 400 234.479Z" fill="#5D55FA"/>
<path d="M406.285 212.763H401.714V208.193C401.715 207.967 401.671 207.744 401.585 207.535C401.499 207.326 401.373 207.136 401.214 206.977C401.055 206.817 400.865 206.69 400.657 206.603C400.449 206.517 400.225 206.472 400 206.472C399.774 206.472 399.55 206.517 399.342 206.603C399.134 206.69 398.944 206.817 398.785 206.977C398.626 207.136 398.5 207.326 398.414 207.535C398.328 207.744 398.284 207.967 398.285 208.193V212.763H393.714C393.26 212.764 392.826 212.946 392.505 213.267C392.185 213.588 392.005 214.024 392.005 214.477C392.005 214.931 392.185 215.366 392.505 215.688C392.826 216.009 393.26 216.19 393.714 216.192H398.285V220.763C398.287 221.216 398.468 221.651 398.789 221.971C399.111 222.292 399.546 222.471 400 222.471C400.453 222.471 400.888 222.292 401.21 221.971C401.531 221.651 401.712 221.216 401.714 220.763V216.193H406.285C406.739 216.191 407.173 216.01 407.494 215.689C407.814 215.367 407.994 214.932 407.994 214.478C407.994 214.025 407.814 213.589 407.494 213.268C407.173 212.947 406.739 212.765 406.285 212.764V212.763Z" fill="white"/>
</svg>
