<svg width="24" height="24" viewBox="0 0 24 24" fill="none" xmlns="http://www.w3.org/2000/svg">
<path d="M24.0005 12.0009C24.0005 15.1835 22.7363 18.2358 20.4858 20.4862C18.2354 22.7366 15.1832 24.0009 12.0006 24.0009C8.81797 24.0009 5.76575 22.7366 3.51531 20.4862C1.26487 18.2358 0.000489284 15.1835 0.000488281 12.0009C0.000488281 8.81832 1.26487 5.76607 3.51531 3.51563C5.76575 1.2652 8.81797 0.000915527 12.0006 0.000915527C15.1832 0.000915527 18.2354 1.2652 20.4858 3.51563C22.7363 5.76607 24.0005 8.81832 24.0005 12.0009V12.0009Z" fill="#E3E5FA"/>
<path d="M16.6404 9.7706L10.6404 14.7709C10.4486 14.9314 10.2036 15.0143 9.95375 15.0031C9.70391 14.9919 9.46743 14.8875 9.29077 14.7105L7.29062 12.7103C7.10439 12.5216 7.00034 12.2669 7.00123 12.0017C7.00211 11.7366 7.10786 11.4825 7.29535 11.2951C7.48283 11.1076 7.73679 11.0019 8.00193 11.001C8.26708 11.0001 8.52187 11.1041 8.7106 11.2904L10.0606 12.6502L15.3606 8.23045C15.4614 8.14356 15.5784 8.07762 15.7049 8.03647C15.8314 7.99532 15.9649 7.97979 16.0975 7.9908C16.23 8.0018 16.3591 8.03912 16.477 8.10056C16.595 8.162 16.6996 8.24632 16.7847 8.34863C16.8697 8.45094 16.9335 8.56916 16.9723 8.6964C17.0111 8.82364 17.0242 8.95734 17.0107 9.08969C16.9973 9.22204 16.9577 9.35039 16.8941 9.46723C16.8305 9.58408 16.7442 9.68708 16.6404 9.77022V9.7706Z" fill="#5D55FA"/>
</svg>
