<svg width="48" height="48" viewBox="0 0 48 48" fill="none" xmlns="http://www.w3.org/2000/svg">
<circle cx="24" cy="24" r="24" fill="#E3E5FA"/>
<path d="M19 23.5C20.6569 23.5 22 22.1569 22 20.5C22 18.8431 20.6569 17.5 19 17.5C17.3431 17.5 16 18.8431 16 20.5C16 22.1569 17.3431 23.5 19 23.5Z" stroke="#5D55FA" stroke-linecap="round" stroke-linejoin="round"/>
<path d="M19.0001 25.5C17.2033 25.5494 15.443 26.0186 13.8601 26.87C13.449 27.0819 13.1045 27.4032 12.8645 27.7984C12.6245 28.1937 12.4984 28.6476 12.5001 29.11V29.57C12.4987 29.693 12.5218 29.815 12.568 29.929C12.6141 30.043 12.6824 30.1467 12.7689 30.2341C12.8554 30.3215 12.9583 30.3909 13.0718 30.4383C13.1853 30.4856 13.3071 30.51 13.4301 30.51H24.5701C24.693 30.51 24.8148 30.4856 24.9283 30.4383C25.0418 30.3909 25.1447 30.3215 25.2312 30.2341C25.3177 30.1467 25.386 30.043 25.4322 29.929C25.4783 29.815 25.5014 29.693 25.5001 29.57V29.11C25.4999 28.6493 25.3729 28.1975 25.133 27.8042C24.8931 27.4108 24.5496 27.0911 24.1401 26.88C22.5579 26.0251 20.7976 25.5525 19.0001 25.5V25.5Z" stroke="#5D55FA" stroke-linecap="round" stroke-linejoin="round"/>
<path d="M28.8601 23.5C30.517 23.5 31.8601 22.1569 31.8601 20.5C31.8601 18.8431 30.517 17.5 28.8601 17.5C27.2033 17.5 25.8601 18.8431 25.8601 20.5C25.8601 22.1569 27.2033 23.5 28.8601 23.5Z" stroke="#5D55FA" stroke-linecap="round" stroke-linejoin="round"/>
<path d="M24.5702 30.5H34.4302C34.5532 30.5 34.6749 30.4756 34.7884 30.4283C34.9019 30.3809 35.0049 30.3115 35.0913 30.2241C35.1778 30.1367 35.2461 30.033 35.2923 29.919C35.3384 29.805 35.3615 29.683 35.3602 29.56V29.1C35.36 28.6393 35.233 28.1875 34.9931 27.7942C34.7532 27.4008 34.4097 27.0811 34.0002 26.87C32.4172 26.0186 30.6569 25.5494 28.8602 25.5C27.1418 25.5442 25.456 25.9785 23.9302 26.77" stroke="#5D55FA" stroke-linecap="round" stroke-linejoin="round"/>
</svg>
