<svg width="48" height="48" viewBox="0 0 48 48" fill="none" xmlns="http://www.w3.org/2000/svg">
<circle cx="24" cy="24" r="24" fill="#E3E5FA"/>
<path d="M24 24.5C27.0376 24.5 29.5 22.0376 29.5 19C29.5 15.9624 27.0376 13.5 24 13.5C20.9624 13.5 18.5 15.9624 18.5 19C18.5 22.0376 20.9624 24.5 24 24.5Z" stroke="#5D55FA" stroke-linecap="round" stroke-linejoin="round"/>
<path d="M24 26.5C21.097 26.5795 18.2521 27.3327 15.69 28.7C15.0307 29.0345 14.477 29.5453 14.0904 30.1755C13.7038 30.8057 13.4995 31.5307 13.5 32.27V33C13.5 33.3978 13.658 33.7794 13.9393 34.0607C14.2206 34.342 14.6022 34.5 15 34.5H33C33.3978 34.5 33.7794 34.342 34.0607 34.0607C34.342 33.7794 34.5 33.3978 34.5 33V32.27C34.5005 31.5307 34.2962 30.8057 33.9096 30.1755C33.523 29.5453 32.9693 29.0345 32.31 28.7C29.7479 27.3327 26.903 26.5795 24 26.5V26.5Z" stroke="#5D55FA" stroke-linecap="round" stroke-linejoin="round"/>
</svg>
